<svg xmlns="http://www.w3.org/2000/svg" width="48" height="80" viewBox="0 0 48 80">
  <defs>
    <style>
      .cls-1 {
        fill: #fff;
        fill-rule: evenodd;
      }
    </style>
  </defs>
  <path id="awards_symbol-leva.svg" class="cls-1" d="M1180.72,1768.1c-2.96-1.88-3.84-6.64-4.68-8.89l-0.03-.17,0.17,0.01a10.93,10.93,0,0,1,8.32,4.82,37.936,37.936,0,0,1-.47-5.93v-0.08l-0.02.03a8.02,8.02,0,0,1-4.48-2.86c-2.27-2.66-1.7-7.47-1.84-9.87l0.03-.17,0.16,0.07a10.915,10.915,0,0,1,6.55,7.17,41.3,41.3,0,0,1,1.05-5.06,8.214,8.214,0,0,1-3.4-3.93c-1.44-3.19.44-7.64,0.97-9.99l0.07-.16,0.14,0.11a10.872,10.872,0,0,1,4.29,8.23c0.54-1.2,1.14-2.37,1.79-3.51l-0.02.01a7.792,7.792,0,0,1-2.34-4.61c-0.58-3.37,2.29-7.11,3.36-9.2l0.11-.13,0.1,0.13a10.666,10.666,0,0,1,1.99,9.06c0.4-.51.81-1.02,1.24-1.52a6.892,6.892,0,0,1,1.96-3.98,10.628,10.628,0,0,1,9.03-3.64l0.17,0.01-0.05.16c-1.17,2.03-2.76,6.48-5.9,7.82a8.7,8.7,0,0,1-4.15.73c-0.48.56-.94,1.13-1.39,1.72a0.612,0.612,0,0,1,.12-0.05,10.65,10.65,0,0,1,9.7.93l0.14,0.08-0.11.12c-1.98,1.27-5.44,4.48-8.85,4.23a8.883,8.883,0,0,1-3.79-1.12,38.994,38.994,0,0,0-2.1,4.25c0.12-.09.23-0.18,0.36-0.27a10.973,10.973,0,0,1,9.86-1.56l0.17,0.05-0.09.15c-1.63,1.77-4.24,5.84-7.69,6.46a8.863,8.863,0,0,1-4.22-.19,37.375,37.375,0,0,0-1.04,5.05c0.01-.01.01-0.02,0.02-0.03a10.931,10.931,0,0,1,9.05-4.23h0.17l-0.04.16c-1.08,2.16-2.46,6.79-5.6,8.34a8.99,8.99,0,0,1-3.97.99v0.1a36.212,36.212,0,0,0,.51,6.07l0.06-.15a10.935,10.935,0,0,1,7.39-6.71l0.16-.05,0.01,0.17c-0.39,2.38-.34,7.21-2.88,9.62a8.9,8.9,0,0,1-3.53,2.12,38.622,38.622,0,0,0,2.14,5.38c0.01-.17.01-0.35,0.02-0.52a10.929,10.929,0,0,1,4.99-8.65l0.14-.1,0.06,0.16c0.35,2.39,1.88,6.97.2,10.04a8.857,8.857,0,0,1-3.02,3.31,43.58,43.58,0,0,0,3.51,4.74c-0.03-.15-0.06-0.29-0.09-0.45a11.341,11.341,0,0,1,2.91-9.97l0.12-.13,0.1,0.14c0.94,2.33,3.63,6.59,2.68,10.11a9.141,9.141,0,0,1-2.19,4.03c0.19,0.18.38,0.36,0.57,0.53a51.5,51.5,0,0,0,4.06,3.38,3.054,3.054,0,0,1-.13-0.32,12.014,12.014,0,0,1,1.18-10.92l0.1-.16,0.14,0.13c1.41,2.25,4.99,6.2,4.65,10.03a9.867,9.867,0,0,1-1.35,4.32,49.344,49.344,0,0,0,5.71,2.88c-0.17-.2-0.35-0.41-0.52-0.63a11.2,11.2,0,0,1-2.04-10.05l0.04-.17,0.16,0.08c1.89,1.6,6.19,4.1,6.98,7.61a8.937,8.937,0,0,1-.15,4.82c2.06,0.67,3.99,1.18,5.74,1.65a0.227,0.227,0,0,0,.04.01v1.57a40.563,40.563,0,0,1-6.21-1.78,8.762,8.762,0,0,1-3.66,3.24c-3.22,1.62-7.88-.11-10.32-0.56l-0.17-.06,0.11-.15a11.226,11.226,0,0,1,8.13-4.75,47.192,47.192,0,0,1-4.74-2.48,1.037,1.037,0,0,0,.04.1l0.05,0.12a8.9,8.9,0,0,1-5.26,2.57c-3.8.6-8-2.68-10.35-3.92l-0.14-.12,0.15-.11a12.04,12.04,0,0,1,10.47-2.07c-1.23-.94-2.48-1.99-3.73-3.14-0.19-.17-0.36-0.34-0.54-0.51a8.729,8.729,0,0,1-5.11,1.37c-3.65-.06-7.02-3.81-9-5.35l-0.11-.14,0.16-.08a11.372,11.372,0,0,1,9.85-.3,44.954,44.954,0,0,1-3.1-4.27,8.528,8.528,0,0,1-4.94.07c-3.39-.88-5.68-5.14-7.18-7.03l-0.07-.15,0.16-.04a10.958,10.958,0,0,1,9.12,1.83,37.943,37.943,0,0,1-1.79-4.64A8.148,8.148,0,0,1,1180.72,1768.1Zm-1.08-20.09c2.21,3.93,3.5,6.41,4.45,7.76v-0.03C1183.83,1755.11,1181.95,1750.54,1179.64,1748.01Zm5.56,19.33a30.135,30.135,0,0,0-6.45-5.99c3.21,3.05,5.17,5.03,6.47,6.06A0.145,0.145,0,0,0,1185.2,1767.34Zm10.09-36.98c1.42-.86,3.49-2.36,6.66-4.51a28,28,0,0,0-6.76,4.41Zm4.64,5.3a27.643,27.643,0,0,0-7.87.77c-0.04.06-.08,0.11-0.12,0.17C1193.6,1736.49,1196.13,1736.12,1199.93,1735.66Zm-9.5.48c0.02-.02.03-0.04,0.04-0.05a29.727,29.727,0,0,0,.1-8.62C1190.47,1731.82,1190.32,1734.53,1190.43,1736.14Zm5.12,6.11a28.836,28.836,0,0,0-7.84,2.89c-0.02.06-.04,0.11-0.06,0.16C1189.26,1744.78,1191.73,1743.74,1195.55,1742.25Zm-3.36,8.11a28.326,28.326,0,0,0-6.55,4.77,1.7,1.7,0,0,1-.01.22C1187.03,1754.38,1189.08,1752.74,1192.19,1750.36Zm-6.02-5.41c0.02-.05.03-0.11,0.05-0.16a29.074,29.074,0,0,0-2.08-8.27C1185.12,1740.67,1185.66,1743.35,1186.17,1744.95Zm29.98,52.96c-0.28-1.62-.89-4.19-1.81-8.35a50.471,50.471,0,0,0,1.78,8.33A0.053,0.053,0,0,1,1216.15,1797.91Zm-9.01,3.59c3.87-1.08,6.48-1.74,8.14-2.29-0.09-.04-0.19-0.07-0.28-0.11A28.8,28.8,0,0,0,1207.14,1801.5Zm-1.37-8.84c-0.1-1.87-.49-4.76-0.96-9.12a31.413,31.413,0,0,0,.78,9Zm-10.34,1.32c5.02,0.18,8.11.39,9.91,0.27C1205.34,1794.24,1199.41,1793.21,1195.43,1793.98Zm1.6-8.68a0.943,0.943,0,0,0,.1.1c0.24-1.74.35-4.55,0.65-8.89A30.082,30.082,0,0,0,1197.03,1785.3Zm-9.73-.61c4.31,0.92,7.06,1.59,8.8,1.83a1.593,1.593,0,0,0-.13-0.13A30.484,30.484,0,0,0,1187.3,1784.69Zm3.32-7.99c0.62-1.56,1.37-4.19,2.65-8.23a29.318,29.318,0,0,0-2.71,8.13A0.879,0.879,0,0,1,1190.62,1776.7Zm-8.98-2.98c3.66,1.76,6.03,2.98,7.6,3.62l-0.12-.21A28.957,28.957,0,0,0,1181.64,1773.72Zm4.96-7.07c1.06-1.33,2.53-3.53,4.83-6.75a28.111,28.111,0,0,0-4.88,6.55C1186.57,1766.51,1186.58,1766.58,1186.6,1766.65Z" transform="translate(-1176 -1724)"/>
</svg>
