<svg xmlns="http://www.w3.org/2000/svg" width="48" height="79.81" viewBox="0 0 48 79.81">
  <defs>
    <style>
      .cls-1 {
        fill: #fff;
        fill-rule: evenodd;
      }
    </style>
  </defs>
  <path id="awards_symbol-prava.svg" class="cls-1" d="M1495.28,1768.24c2.96-1.87,3.84-6.62,4.68-8.87l0.03-.16-0.17.01a10.948,10.948,0,0,0-8.32,4.8,37.683,37.683,0,0,0,.47-5.91v-0.08l0.02,0.03a8.035,8.035,0,0,0,4.48-2.85c2.27-2.66,1.7-7.45,1.84-9.85l-0.03-.17-0.16.07a10.892,10.892,0,0,0-6.55,7.15,40.6,40.6,0,0,0-1.05-5.04,8.281,8.281,0,0,0,3.4-3.92c1.44-3.18-.44-7.63-0.97-9.98l-0.07-.15-0.14.11a10.824,10.824,0,0,0-4.29,8.21c-0.54-1.19-1.14-2.36-1.79-3.5l0.02,0.01a7.792,7.792,0,0,0,2.34-4.61c0.58-3.35-2.29-7.09-3.36-9.17l-0.11-.13-0.1.13a10.62,10.62,0,0,0-1.99,9.04c-0.4-.51-0.81-1.02-1.24-1.52a6.869,6.869,0,0,0-1.96-3.97,10.655,10.655,0,0,0-9.03-3.63l-0.17.01,0.05,0.16c1.17,2.03,2.76,6.46,5.9,7.8a8.7,8.7,0,0,0,4.15.73c0.48,0.56.94,1.13,1.39,1.71a0.612,0.612,0,0,1-.12-0.05,10.713,10.713,0,0,0-9.7.93l-0.14.09,0.11,0.11c1.98,1.27,5.44,4.48,8.85,4.22a8.744,8.744,0,0,0,3.79-1.12,39.762,39.762,0,0,1,2.1,4.24c-0.12-.09-0.23-0.17-0.36-0.26a10.942,10.942,0,0,0-9.86-1.56l-0.17.05,0.09,0.14c1.63,1.77,4.24,5.84,7.69,6.46a9.131,9.131,0,0,0,4.22-.19,36.777,36.777,0,0,1,1.04,5.03c-0.01-.01-0.01-0.02-0.02-0.03a10.928,10.928,0,0,0-9.05-4.22h-0.17l0.04,0.17c1.08,2.14,2.46,6.77,5.6,8.32a9.093,9.093,0,0,0,3.97.98v0.1a36.182,36.182,0,0,1-.51,6.06l-0.06-.15a10.926,10.926,0,0,0-7.39-6.7l-0.16-.05-0.01.17c0.39,2.37.34,7.2,2.88,9.6a9.151,9.151,0,0,0,3.53,2.12,38.875,38.875,0,0,1-2.14,5.36c-0.01-.17-0.01-0.34-0.02-0.52a10.885,10.885,0,0,0-4.99-8.63l-0.14-.09-0.06.16c-0.35,2.37-1.88,6.95-.2,10.01a8.89,8.89,0,0,0,3.02,3.3,43.471,43.471,0,0,1-3.51,4.73c0.03-.14.06-0.29,0.09-0.44a11.3,11.3,0,0,0-2.91-9.95l-0.12-.14-0.1.15c-0.94,2.32-3.63,6.57-2.68,10.08a9.153,9.153,0,0,0,2.19,4.02c-0.19.18-.38,0.36-0.57,0.53-1.37,1.26-2.72,2.37-4.06,3.38,0.05-.11.09-0.22,0.13-0.33a11.952,11.952,0,0,0-1.18-10.89l-0.1-.16-0.14.13c-1.41,2.24-4.99,6.18-4.65,10.01a9.863,9.863,0,0,0,1.35,4.31,49.059,49.059,0,0,1-5.71,2.86c0.17-.19.35-0.4,0.52-0.62a11.142,11.142,0,0,0,2.04-10.03l-0.04-.17-0.16.08c-1.89,1.6-6.19,4.09-6.98,7.59a8.889,8.889,0,0,0,.15,4.81c-2.06.68-3.99,1.19-5.74,1.65a0.227,0.227,0,0,1-.04.01v1.57a41.055,41.055,0,0,0,6.21-1.77,8.823,8.823,0,0,0,3.66,3.22c3.22,1.62,7.88-.11,10.32-0.55l0.17-.07-0.11-.14a11.208,11.208,0,0,0-8.13-4.74,47.192,47.192,0,0,0,4.74-2.48c-0.01.04-.03,0.07-0.04,0.11l-0.05.11a8.86,8.86,0,0,0,5.26,2.56c3.8,0.61,8-2.66,10.35-3.9l0.14-.12-0.15-.11a12.077,12.077,0,0,0-10.47-2.07c1.23-.94,2.48-1.98,3.73-3.13,0.19-.17.36-0.34,0.54-0.51a8.807,8.807,0,0,0,5.11,1.37c3.65-.06,7.02-3.8,9-5.34l0.11-.14-0.16-.08a11.372,11.372,0,0,0-9.85-.3,46.137,46.137,0,0,0,3.1-4.26,8.528,8.528,0,0,0,4.94.07c3.39-.88,5.68-5.13,7.18-7.01l0.07-.16-0.16-.03a10.922,10.922,0,0,0-9.12,1.83,38.579,38.579,0,0,0,1.79-4.64A8.072,8.072,0,0,0,1495.28,1768.24Zm1.08-20.04c-2.21,3.92-3.5,6.4-4.45,7.75v-0.03C1492.17,1755.29,1494.05,1750.72,1496.36,1748.2Zm-5.56,19.28a30.429,30.429,0,0,1,6.45-5.97c-3.21,3.05-5.17,5.02-6.47,6.04A0.254,0.254,0,0,1,1490.8,1767.48Zm-10.09-36.89c-1.42-.86-3.49-2.35-6.66-4.5a27.7,27.7,0,0,1,6.76,4.41Zm-4.64,5.3a27.682,27.682,0,0,1,7.87.76c0.04,0.06.08,0.12,0.12,0.17C1482.4,1736.71,1479.87,1736.34,1476.07,1735.89Zm9.5,0.47c-0.02-.02-0.03-0.04-0.04-0.05a29.525,29.525,0,0,1-.1-8.59C1485.53,1732.05,1485.68,1734.75,1485.57,1736.36Zm-5.12,6.1a29.2,29.2,0,0,1,7.84,2.88c0.02,0.06.04,0.11,0.06,0.16C1486.74,1744.98,1484.27,1743.94,1480.45,1742.46Zm3.36,8.09a28.032,28.032,0,0,1,6.55,4.76,1.477,1.477,0,0,0,.01.21C1488.97,1754.56,1486.92,1752.92,1483.81,1750.55Zm6.02-5.4c-0.02-.05-0.03-0.11-0.05-0.16a28.971,28.971,0,0,1,2.08-8.25C1490.88,1740.88,1490.34,1743.55,1489.83,1745.15Zm-29.98,52.83c0.28-1.61.89-4.18,1.81-8.33a49.857,49.857,0,0,1-1.78,8.31A0.053,0.053,0,0,1,1459.85,1797.98Zm9.01,3.59c-3.87-1.08-6.48-1.73-8.14-2.29,0.09-.03.19-0.07,0.28-0.11A28.8,28.8,0,0,1,1468.86,1801.57Zm1.37-8.83c0.1-1.86.49-4.74,0.96-9.09a31.265,31.265,0,0,1-.78,8.98A1.739,1.739,0,0,1,1470.23,1792.74Zm10.34,1.33c-5.02.17-8.11,0.39-9.91,0.26C1470.66,1794.33,1476.59,1793.3,1480.57,1794.07Zm-1.6-8.66-0.1.1c-0.24-1.74-.35-4.54-0.65-8.87A29.932,29.932,0,0,1,1478.97,1785.41Zm9.73-.61c-4.31.91-7.06,1.59-8.8,1.82l0.13-.13A30.532,30.532,0,0,1,1488.7,1784.8Zm-3.32-7.98c-0.62-1.55-1.37-4.17-2.65-8.21a29.334,29.334,0,0,1,2.71,8.11A0.879,0.879,0,0,1,1485.38,1776.82Zm8.98-2.96c-3.66,1.75-6.03,2.97-7.6,3.61l0.12-.21A28.643,28.643,0,0,1,1494.36,1773.86Zm-4.96-7.06c-1.06-1.33-2.53-3.52-4.83-6.74a28.084,28.084,0,0,1,4.88,6.54C1489.43,1766.66,1489.42,1766.73,1489.4,1766.8Z" transform="translate(-1452 -1724.25)"/>
</svg>
