<svg id="Beatgames_logo.svg" xmlns="http://www.w3.org/2000/svg" width="208" height="31" viewBox="0 0 208 31">
  <defs>
    <style>
      .cls-1 {
        fill: #fff;
        fill-rule: evenodd;
      }
    </style>
  </defs>
  <path id="Tvar_1" data-name="Tvar 1" class="cls-1" d="M477.447,1042.54a14.909,14.909,0,0,0-10.6-4.53L435.64,1038h-0.1l-0.389.01q-0.574.015-1.136,0.06h-0.067a15.507,15.507,0,0,0,1.2,30.93h31.31a15.491,15.491,0,0,0,10.99-26.46m-10.99-1.43a12.39,12.39,0,1,1,0,24.78H435.543a11.991,11.991,0,0,1-8.785-3.63h-0.007a12.389,12.389,0,0,1,7.2-21.05,9.492,9.492,0,0,1,1.592-.1h30.914m-9.1,7.48a1.583,1.583,0,0,0-1.405-1.2H455.6a1.532,1.532,0,0,0-.92.45,1.5,1.5,0,0,0-.411.72,0.034,0.034,0,0,0-.008.02,1.352,1.352,0,0,0-.045.29v9.27a1.456,1.456,0,0,0,.045.29,1.6,1.6,0,0,0,.419.73v0.01a1.58,1.58,0,0,0,.927.44,0.855,0.855,0,0,0,.157.01h0.09a1.475,1.475,0,0,0,1.076-.46,1.449,1.449,0,0,0,.426-0.75,1.644,1.644,0,0,0,.045-0.33v-9.16a1.87,1.87,0,0,0-.045-0.33m-7.536-3.91a1.509,1.509,0,0,0-.411.72,0.032,0.032,0,0,0-.007.02,1.26,1.26,0,0,0-.045.28v15.61a1.1,1.1,0,0,0,.037.29,1.521,1.521,0,0,0,.426.73,1.537,1.537,0,0,0,1.085.47h0.082a1.534,1.534,0,0,0,1.084-.47,1.5,1.5,0,0,0,.463-1.08l0.008-15.49a1.517,1.517,0,0,0-.471-1.08,1.493,1.493,0,0,0-.98-0.46h-0.3a1.487,1.487,0,0,0-.972.46m-3.8,4.97a1.463,1.463,0,0,0-.971.46,1.578,1.578,0,0,0-.419.71v0.01l-0.008.02a1.064,1.064,0,0,0-.037.28v4.74a1.283,1.283,0,0,0,.037.3,1.6,1.6,0,0,0,.427.73,1.515,1.515,0,0,0,1.076.46h0.09a1.035,1.035,0,0,0,.157-0.01,1.6,1.6,0,0,0,1.346-1.2,1.644,1.644,0,0,0,.045-0.33v-4.64a1.644,1.644,0,0,0-.045-0.33,1.512,1.512,0,0,0-.427-0.74,1.543,1.543,0,0,0-.919-0.46h-0.352m-5.838,2.27h-3.058l0.007-.01v-3.04a1.556,1.556,0,0,0-.463-1.02c-0.005-.01-0.01-0.01-0.015-0.02a1.55,1.55,0,0,0-1.017-.44h-0.194a1.513,1.513,0,0,0-1.017.45l-0.008.01a1.52,1.52,0,0,0-.47,1.08v2.99h-3.043a1.5,1.5,0,0,0-1.032.46c0,0.01-.01.01-0.015,0.02a1.5,1.5,0,0,0-.456,1.06v0.08a1.52,1.52,0,0,0,.456,1.07,0.034,0.034,0,0,0,.015.02,1.567,1.567,0,0,0,1.084.46h2.991v2.98a1.52,1.52,0,0,0,.47,1.08,0.029,0.029,0,0,1,.008.02,1.548,1.548,0,0,0,1.077.45h0.074a1.548,1.548,0,0,0,1.077-.45,0.034,0.034,0,0,0,.015-0.02,1.514,1.514,0,0,0,.463-1.02v-3.04h2.991a1.593,1.593,0,0,0,1.091-.46l0.008-.02a1.5,1.5,0,0,0,.448-1.01v-0.19a1.5,1.5,0,0,0-.448-1.01l-0.008-.02a1.515,1.515,0,0,0-1.031-.46m26.271,3.58a2.008,2.008,0,0,0-1.466.6,2.06,2.06,0,0,0,1.414,3.52h0.1a1.968,1.968,0,0,0,1.406-.6,2.06,2.06,0,0,0-1.458-3.52m4.067-4.07a1.984,1.984,0,0,0-1.465.62,1.96,1.96,0,0,0-.606,1.45,1.983,1.983,0,0,0,.606,1.46,2.1,2.1,0,0,0,1.465.61,2.078,2.078,0,0,0,1.458-.61,1.988,1.988,0,0,0,.613-1.4v-0.11a1.952,1.952,0,0,0-.613-1.4,1.978,1.978,0,0,0-1.458-.62m-5.742-3.2a1.948,1.948,0,0,0-.4,1.21,2.008,2.008,0,0,0,.6,1.47,3.086,3.086,0,0,0,.247.2,1.951,1.951,0,0,0,1.219.4,1.928,1.928,0,0,0,1.218-.4,2.313,2.313,0,0,0,.24-0.2,2.085,2.085,0,0,0,.217-2.68,1.471,1.471,0,0,0-.217-0.24,1.978,1.978,0,0,0-1.406-.61h-0.1a2,2,0,0,0-1.414.61,1.7,1.7,0,0,0-.209.24m-2.392,3.2a1.978,1.978,0,0,0-1.458.62,1.921,1.921,0,0,0-.605,1.4v0.11a1.955,1.955,0,0,0,.605,1.4,2.078,2.078,0,0,0,1.458.61,2.1,2.1,0,0,0,1.465-.61,2.028,2.028,0,0,0,.606-1.46A2.093,2.093,0,0,0,462.39,1051.43Z" transform="translate(-420 -1038)"/>
  <path id="Beat_Games" data-name="Beat Games" class="cls-1" d="M507.864,1049.56c0-3.17-1.923-4.29-4.768-4.29h-6.09v15.44h6.33c2.645,0,5.129-1.04,5.129-4.48a3.934,3.934,0,0,0-2.444-3.59A3.311,3.311,0,0,0,507.864,1049.56Zm-7.673,1.83v-3.23h2.985a1.618,1.618,0,0,1-.02,3.23h-2.965Zm3.145,6.43h-3.145v-3.51h3.085A1.77,1.77,0,1,1,503.336,1057.82Zm13.061,3.19a5.989,5.989,0,0,0,5.149-2.71l-2.324-1.41a3.494,3.494,0,0,1-2.825,1.35c-0.6,0-2.644-.21-3-2.11h8.695s0.06-.57.06-1.46a5.682,5.682,0,0,0-5.75-5.77A6.055,6.055,0,0,0,516.4,1061.01Zm-0.02-9.34a2.6,2.6,0,0,1,2.605,2.22h-5.51A2.661,2.661,0,0,1,516.377,1051.67Zm16.547,9.04h2.965v-11.62h-2.965v1.21a4.047,4.047,0,0,0-3.345-1.46c-3.486,0-5.53,2.72-5.53,6.06s2.044,6.06,5.53,6.06a4.374,4.374,0,0,0,3.345-1.41v1.16Zm0.121-5.81c0,2.03-1.162,3.27-3.026,3.27a3.029,3.029,0,0,1-3.025-3.27A3.036,3.036,0,1,1,533.045,1054.9Zm9.515-3.23h2.2v-2.77h-2.2v-3.1h-2.966v3.1h-1.342v2.77h1.342v6.44c0,2.45,1.423,2.9,3.747,2.9,0.421,0,.982-0.05,1.342-0.09v-2.66a6.662,6.662,0,0,1-.761.04c-1.343,0-1.362-1.1-1.362-1.73v-4.9Zm25.421,0.44h-8.855v2.94H564.6a4.527,4.527,0,0,1-4.267,2.93,4.98,4.98,0,1,1,3.907-7.6l2.724-1.67a7.9,7.9,0,0,0-6.631-3.72,8.011,8.011,0,0,0,0,16.02,7.487,7.487,0,0,0,7.653-6.76c0.02-.32.04-0.62,0.04-0.89C568.021,1053.02,568,1052.53,567.981,1052.11Zm10.7,8.6h2.965v-11.62h-2.965v1.21a4.048,4.048,0,0,0-3.346-1.46c-3.486,0-5.529,2.72-5.529,6.06s2.043,6.06,5.529,6.06a4.375,4.375,0,0,0,3.346-1.41v1.16Zm0.12-5.81c0,2.03-1.162,3.27-3.025,3.27a3.029,3.029,0,0,1-3.025-3.27A3.036,3.036,0,1,1,578.8,1054.9Zm18.811-6.02a4.558,4.558,0,0,0-3.546,1.58,4.142,4.142,0,0,0-3.546-1.58,4.806,4.806,0,0,0-2.905,1.27v-1.06h-2.985v11.62h2.985l0.02-6.15c0-2.53,1.2-3.06,2.123-3.06,1.122,0,2.124.55,2.124,2.34v6.87H594.9v-6.46c0.02-2.22,1.282-2.75,2.1-2.75,1.162,0,2.143.55,2.143,2.34v6.87h3.026v-6.87C602.177,1050.82,600.774,1048.88,597.609,1048.88Zm13.141,12.13a5.986,5.986,0,0,0,5.148-2.71l-2.324-1.41a3.494,3.494,0,0,1-2.824,1.35c-0.6,0-2.645-.21-3.006-2.11h8.695s0.06-.57.06-1.46a5.681,5.681,0,0,0-5.749-5.77A6.055,6.055,0,0,0,610.75,1061.01Zm-0.021-9.34a2.6,2.6,0,0,1,2.6,2.22h-5.509A2.659,2.659,0,0,1,610.729,1051.67Zm12.741,9.31c2.885,0,4.528-1.37,4.528-3.78,0-3-2.524-3.33-4.388-3.67-0.48-.07-2.083-0.26-2.083-1.04,0-.57.861-0.86,1.442-0.86a6.131,6.131,0,0,1,3.125,1.07l1.563-2.15a6.986,6.986,0,0,0-4.588-1.67c-1.061,0-4.547.27-4.547,3.68,0,2.91,2.865,3.38,4.367,3.65,0.581,0.11,2.124.19,2.124,0.97a1.357,1.357,0,0,1-1.583,1.04,6.66,6.66,0,0,1-3.566-1.25l-1.563,2.2A7.651,7.651,0,0,0,623.47,1060.98Z" transform="translate(-420 -1038)"/>
</svg>
