<svg xmlns="http://www.w3.org/2000/svg" width="32.031" height="30.5" viewBox="0 0 32.031 30.5">
  <defs>
    <style>
      .cls-1 {
        fill: #fff;
        fill-rule: evenodd;
      }
    </style>
  </defs>
  <path id="nakupni_kosik.svg" class="cls-1" d="M783.125,1486.97a1.658,1.658,0,0,0-1.258-.58h-23l-0.326-1.97A1.672,1.672,0,0,0,756.9,1483h-3.745a1.7,1.7,0,0,0,0,3.39h2.335l3.1,18.92c0.013,0.07.051,0.13,0.075,0.21a1.782,1.782,0,0,0,.089.25,1.522,1.522,0,0,0,.2.3,1.077,1.077,0,0,0,.158.19,1.213,1.213,0,0,0,.322.22,0.772,0.772,0,0,0,.186.11,1.422,1.422,0,0,0,.611.13h18.313a1.7,1.7,0,0,0,0-3.39h-16.9l-0.276-1.69H780.2a1.674,1.674,0,0,0,1.648-1.45l1.665-11.87A1.726,1.726,0,0,0,783.125,1486.97Zm-3.176,2.81-0.475,3.39h-5.931v-3.39h6.406Zm-8.07,0v3.39h-5v-3.39h5Zm0,5.08v3.39h-5v-3.39h5Zm-6.659-5.08v3.39h-4.994a0.676,0.676,0,0,0-.247.05l-0.562-3.44h5.8Zm-4.971,5.08h4.971v3.39H760.8Zm13.294,3.39v-3.39h5.69l-0.475,3.39h-5.215Zm-10.82,10.17a2.54,2.54,0,1,1-2.5,2.54A2.514,2.514,0,0,1,762.723,1508.42Zm14.982,0a2.54,2.54,0,1,1-2.5,2.54A2.515,2.515,0,0,1,777.705,1508.42Z" transform="translate(-751.5 -1483)"/>
</svg>
