<svg xmlns="http://www.w3.org/2000/svg" width="26.18" height="25.84" viewBox="0 0 26.18 25.84">
  <defs>
    <style>
      .cls-1 {
        fill: #f5f5f5;
        fill-rule: evenodd;
      }
    </style>
  </defs>
  <path id="humble.svg" class="cls-1" d="M1418.47,2644.62c-3.69,0,1.99-20.92,1.99-20.92l-3.8-.01a100.89,100.89,0,0,0-2.59,10.4h-3.28c0.09-1.12.13-2.26,0.11-3.4-0.15-9-5.42-7.34-7.79-5.27a13.15,13.15,0,0,0-4.16,8.58c0.36-.02,1.77-0.03,1.77-0.03s1.18-5.36,4.87-5.36-2,20.93-2,20.93h3.8a75.708,75.708,0,0,0,2.95-11.86l3.13-.01a40.385,40.385,0,0,0-.21,5.06c0.15,9.01,5.4,7.08,7.77,5.01a14.157,14.157,0,0,0,4.1-8.53l-1.82.01C1423.32,2639.39,1422.16,2644.62,1418.47,2644.62Z" transform="translate(-1398.94 -2623.69)"/>
</svg>
