<svg xmlns="http://www.w3.org/2000/svg" width="34" height="20" viewBox="0 0 34 20">
  <defs>
    <style>
      .cls-1 {
        fill: #fff;
        fill-rule: evenodd;
      }
    </style>
  </defs>
  <path id="oculus.svg" class="cls-1" d="M1415.73,2409h-15.58c-5.02,0-9.09-4.35-9.15-9.74v-0.51c0.06-5.4,4.13-9.75,9.15-9.75h15.7c5.02,0,9.09,4.35,9.15,9.74v0.53c-0.07,5.39-4.14,9.73-9.15,9.73h-0.12Zm-15.46-13.85h-0.03a3.512,3.512,0,0,0-3.37,3.58v0.52a3.51,3.51,0,0,0,3.37,3.6h15.52a3.512,3.512,0,0,0,3.37-3.58v-0.52a3.51,3.51,0,0,0-3.37-3.6h-15.49Z" transform="translate(-1391 -2389)"/>
</svg>
