<svg xmlns="http://www.w3.org/2000/svg" width="38.97" height="30" viewBox="0 0 38.97 30">
  <defs>
    <style>
      .cls-1 {
        fill: #fff;
        fill-rule: evenodd;
      }
    </style>
  </defs>
  <path id="PS.svg" class="cls-1" d="M1447.65,2565.96a7.25,7.25,0,0,1-2.63,1.64l-13.88,4.97v-3.66l10.22-3.63c1.16-.42,1.33-1,0.39-1.31a6.846,6.846,0,0,0-3.8.2l-6.81,2.39v-3.81l0.39-.13a23.833,23.833,0,0,1,4.73-1,20.263,20.263,0,0,1,8.82,1.05C1448.08,2563.61,1448.41,2565,1447.65,2565.96Zm-15.19-6.24v-9.38c0-1.1-.21-2.11-1.24-2.4-0.8-.25-1.29.48-1.29,1.58V2573l-6.35-2.01V2543a77.1,77.1,0,0,1,8.75,2.39c5.38,1.84,7.21,4.13,7.21,9.3C1439.54,2559.72,1436.42,2561.62,1432.46,2559.72Zm-20.54,8.8c-3.08-.86-3.59-2.66-2.19-3.7a15.336,15.336,0,0,1,3.5-1.67l9.11-3.23v3.68l-6.55,2.34c-1.16.41-1.34,1-.4,1.3a6.963,6.963,0,0,0,3.81-.19l3.14-1.14v3.29c-0.2.04-.42,0.07-0.62,0.11a20.645,20.645,0,0,1-9.8-.79h0Zm33.71,1.46a1.435,1.435,0,0,1,1.05.44,1.481,1.481,0,1,1-2.54,1.04A1.492,1.492,0,0,1,1445.63,2569.98Zm-1.24,1.48a1.229,1.229,0,0,0,1.24,1.24,1.238,1.238,0,0,0,1.23-1.24,1.185,1.185,0,0,0-.36-0.87,1.225,1.225,0,0,0-.87-0.36,1.266,1.266,0,0,0-.88.36A1.225,1.225,0,0,0,1444.39,2571.46Zm1.69-.79a0.393,0.393,0,0,1,.24.4,0.463,0.463,0,0,1-.06.25,0.374,0.374,0,0,1-.13.12,0.32,0.32,0,0,1,.16.3l0.01,0.21a0.451,0.451,0,0,0,.01.13,0.1,0.1,0,0,0,.05.07l0.02,0.01v0.1h-0.32l-0.01-.02c-0.01-.02-0.01-0.04-0.02-0.06s-0.01-.07-0.01-0.13l-0.01-.26a0.194,0.194,0,0,0-.1-0.18,0.361,0.361,0,0,0-.18-0.03h-0.45v0.68H1445v-1.65h0.76a0.731,0.731,0,0,1,.32.06h0Zm-0.8.66h0.46a0.447,0.447,0,0,0,.22-0.05,0.223,0.223,0,0,0,.07-0.19,0.2,0.2,0,0,0-.1-0.2,0.351,0.351,0,0,0-.16-0.03h-0.49v0.47h0Z" transform="translate(-1409.03 -2543)"/>
</svg>
