<svg xmlns="http://www.w3.org/2000/svg" width="28" height="26" viewBox="0 0 28 26">
  <defs>
    <style>
      .cls-1 {
        fill: #fff;
        fill-rule: evenodd;
      }
    </style>
  </defs>
  <path id="seam_vr.svg" class="cls-1" d="M1458,2412c-4.67,0-6.42-2.42-7.69-4.18a0.849,0.849,0,0,1,.19-1.19,0.837,0.837,0,0,1,1.18.19c1.18,1.63,2.51,3.48,6.32,3.48,3.7,0,6.32-3.35,6.34-3.38a0.848,0.848,0,1,1,1.34,1.04C1465.56,2408.12,1462.52,2412,1458,2412Zm-5.33-10.33a8.631,8.631,0,0,1-8.64-6.62,0.861,0.861,0,0,1-.03-0.28l0.17-5.31v-0.03c0.07-1.01,1.51-3.36,13.46-3.36,1.26-.07,11.26-0.53,14.13,2.49a0.824,0.824,0,0,1,.24.59v4.99c0,0.07-.29,7.51-9.05,7.51a0.866,0.866,0,0,1-.32-0.06,8.492,8.492,0,0,1-2.49-1.73,3.343,3.343,0,0,0-2.14-.95,4.815,4.815,0,0,0-2.19,1c-0.29.24-.54,0.47-0.76,0.67a3.192,3.192,0,0,1-1.8,1.07h-0.04C1453.06,2401.66,1452.88,2401.67,1452.67,2401.67Zm-6.97-6.98a6.95,6.95,0,0,0,7.41,5.27h0.02a6.8,6.8,0,0,0,.79-0.65c0.23-.21.49-0.44,0.8-0.7a6.232,6.232,0,0,1,3.28-1.4,5.007,5.007,0,0,1,3.33,1.45,7.132,7.132,0,0,0,1.81,1.29c6.87-.09,7.15-5.5,7.17-5.84v-4.59c-1.1-.87-3.54-1.48-6.96-1.7a49.142,49.142,0,0,0-5.65-.05h-0.04c-9.82,0-11.57,1.61-11.8,1.9Zm7.48,5.26h0Zm-7.35-10.24h0Z" transform="translate(-1444 -2386)"/>
</svg>
