<svg xmlns="http://www.w3.org/2000/svg" width="29" height="29" viewBox="0 0 29 29">
  <defs>
    <style>
      .cls-1 {
        fill: #fff;
        fill-rule: evenodd;
      }
    </style>
  </defs>
  <path id="tt.svg" class="cls-1" d="M878.5,1038a14.5,14.5,0,1,1-14.5,14.5A14.5,14.5,0,0,1,878.5,1038Zm5.752,11.67a2.642,2.642,0,0,1-.626-0.07v-0.45a3.037,3.037,0,0,1-1.581-.45,0.146,0.146,0,0,1,.037.04,0.146,0.146,0,0,0-.037-0.04,3,3,0,0,1-1.364-2.02h0a3,3,0,0,0,1.364,2.02,3,3,0,0,1-.771-1.74v-0.28h-0.593q-0.021-.12-0.033-0.24v-0.28H878.5v8.53a1.8,1.8,0,0,1-1.807,1.8,1.845,1.845,0,0,1-.813-0.19,1.808,1.808,0,0,0,3.245-1.09h0a2.136,2.136,0,1,1-2.432-2.33h0a1.807,1.807,0,0,0-.813,3.42,1.807,1.807,0,0,1,1.439-2.9,1.715,1.715,0,0,1,.548.09v-2.19a3.28,3.28,0,0,0-.626-0.03v1.7h0v-1.7h0v-0.49a4.886,4.886,0,0,0-.542-0.04,3.949,3.949,0,0,0-2.2,7.23h0a3.911,3.911,0,0,0,2.824,1.19,3.951,3.951,0,0,0,3.95-3.95v-4.36a5.107,5.107,0,0,0,2.978.96v-2.14Zm-1.277-.29a2.513,2.513,0,0,0,.651.22h0A2.476,2.476,0,0,1,882.975,1049.38Zm-0.007,0a0.066,0.066,0,0,1-.036-0.02A0.066,0.066,0,0,0,882.968,1049.38Zm-0.053-.02c-0.009-.01-0.017-0.01-0.026-0.02C882.9,1049.35,882.906,1049.35,882.915,1049.36Zm-0.053-.03s-0.011-.01-0.015-0.01S882.857,1049.33,882.862,1049.33Zm-0.053-.03h0Zm-5.635,3.65c0.021,0,.042.01,0.062,0.01C877.216,1052.96,877.2,1052.95,877.174,1052.95Zm-0.411-.07h0Zm0.071,0.01h0Zm0.069,0a0.024,0.024,0,0,1,.022.01A0.024,0.024,0,0,0,876.9,1052.89Zm0.069,0.01c0.011,0,.022.01,0.033,0.01C876.994,1052.91,876.983,1052.9,876.972,1052.9Zm0.068,0.01a0.068,0.068,0,0,0,.043.01A0.068,0.068,0,0,1,877.04,1052.91Zm0.067,0.02c0.017,0,.034.01,0.051,0.01C877.141,1052.94,877.124,1052.93,877.107,1052.93Z" transform="translate(-864 -1038)"/>
</svg>
