<svg xmlns="http://www.w3.org/2000/svg" width="32.03" height="27" viewBox="0 0 32.03 27">
  <defs>
    <style>
      .cls-1 {
        fill: #fff;
        fill-rule: evenodd;
      }
    </style>
  </defs>
  <path id="vive.svg" class="cls-1" d="M1374.74,2405.63l-11.86-19.64a2.1,2.1,0,0,0-1.81-.99h-4.12a2.039,2.039,0,0,0-1.8.99l-11.86,19.64a1.879,1.879,0,0,0,0,1.99l2.04,3.38a2.125,2.125,0,0,0,1.81,1h23.71a2.076,2.076,0,0,0,1.81-1l2.08-3.38A2.069,2.069,0,0,0,1374.74,2405.63Zm-10.09,1.91a18.942,18.942,0,0,1-5.66.85,19.324,19.324,0,0,1-5.65-.85,4.062,4.062,0,0,1-2.93-4.71,17.864,17.864,0,0,1,5.66-9.55,4.471,4.471,0,0,1,5.81,0,17.718,17.718,0,0,1,5.66,9.55A4,4,0,0,1,1364.65,2407.54Z" transform="translate(-1343 -2385)"/>
</svg>
